<?xml version="1.0" standalone="no"?>
<!DOCTYPE svg PUBLIC "-//W3C//DTD SVG 20010904//EN"
 "http://www.w3.org/TR/2001/REC-SVG-20010904/DTD/svg10.dtd">
<svg version="1.0" xmlns="http://www.w3.org/2000/svg"
 width="200.000000pt" height="200.000000pt" viewBox="0 0 200.000000 200.000000"
 preserveAspectRatio="xMidYMid meet">

<g transform="translate(0.000000,200.000000) scale(0.100000,-0.100000)"
fill="#000000" stroke="none">
<path d="M739 1430 c-14 -4 -38 -15 -53 -25 l-27 -18 83 -85 c46 -46 97 -90
115 -98 44 -19 242 -19 286 0 18 8 70 52 115 99 l84 84 -35 22 c-45 28 -114
37 -163 21 -21 -7 -62 -36 -92 -63 l-53 -51 -47 47 c-70 69 -137 90 -213 67z"/>
<path d="M591 1307 c-52 -85 -34 -183 49 -264 l43 -42 -50 -54 c-27 -29 -56
-70 -63 -91 -16 -49 -7 -118 21 -163 l22 -35 84 84 c47 45 91 97 99 115 20 46
19 244 -1 287 -8 17 -53 69 -99 115 l-83 83 -22 -35z"/>
<path d="M1298 1253 c-48 -49 -92 -101 -97 -116 -17 -45 -14 -243 4 -281 8
-17 53 -69 99 -115 l83 -83 22 35 c28 45 37 114 21 163 -7 21 -36 62 -63 91
l-50 54 43 42 c48 47 79 107 80 152 0 41 -17 95 -38 123 l-17 22 -87 -87z"/>
<path d="M855 794 c-17 -8 -68 -52 -114 -98 l-83 -83 35 -22 c45 -28 114 -37
163 -21 21 7 62 35 91 63 l53 50 53 -50 c29 -28 70 -56 91 -63 49 -16 118 -7
163 21 l35 22 -84 84 c-45 47 -97 91 -115 99 -46 20 -247 19 -288 -2z"/>
</g>
</svg>
